<?xml version="1.0" encoding="utf-8"?>
<svg xmlns="http://www.w3.org/2000/svg" xmlns:xlink="http://www.w3.org/1999/xlink" style="margin: auto; background: none; display: block; shape-rendering: auto;" width="184px" height="184px" viewBox="0 0 100 100" preserveAspectRatio="xMidYMid">
<g transform="rotate(0 50 50)">
  <rect x="48.5" y="19.5" rx="0" ry="0" width="3" height="17" fill="#7f7f7f">
    <animate attributeName="opacity" values="1;0" keyTimes="0;1" dur="0.819672131147541s" begin="-0.7285974499089253s" repeatCount="indefinite"></animate>
  </rect>
</g><g transform="rotate(40 50 50)">
  <rect x="48.5" y="19.5" rx="0" ry="0" width="3" height="17" fill="#7f7f7f">
    <animate attributeName="opacity" values="1;0" keyTimes="0;1" dur="0.819672131147541s" begin="-0.6375227686703097s" repeatCount="indefinite"></animate>
  </rect>
</g><g transform="rotate(80 50 50)">
  <rect x="48.5" y="19.5" rx="0" ry="0" width="3" height="17" fill="#7f7f7f">
    <animate attributeName="opacity" values="1;0" keyTimes="0;1" dur="0.819672131147541s" begin="-0.5464480874316939s" repeatCount="indefinite"></animate>
  </rect>
</g><g transform="rotate(120 50 50)">
  <rect x="48.5" y="19.5" rx="0" ry="0" width="3" height="17" fill="#7f7f7f">
    <animate attributeName="opacity" values="1;0" keyTimes="0;1" dur="0.819672131147541s" begin="-0.4553734061930783s" repeatCount="indefinite"></animate>
  </rect>
</g><g transform="rotate(160 50 50)">
  <rect x="48.5" y="19.5" rx="0" ry="0" width="3" height="17" fill="#7f7f7f">
    <animate attributeName="opacity" values="1;0" keyTimes="0;1" dur="0.819672131147541s" begin="-0.36429872495446264s" repeatCount="indefinite"></animate>
  </rect>
</g><g transform="rotate(200 50 50)">
  <rect x="48.5" y="19.5" rx="0" ry="0" width="3" height="17" fill="#7f7f7f">
    <animate attributeName="opacity" values="1;0" keyTimes="0;1" dur="0.819672131147541s" begin="-0.27322404371584696s" repeatCount="indefinite"></animate>
  </rect>
</g><g transform="rotate(240 50 50)">
  <rect x="48.5" y="19.5" rx="0" ry="0" width="3" height="17" fill="#7f7f7f">
    <animate attributeName="opacity" values="1;0" keyTimes="0;1" dur="0.819672131147541s" begin="-0.18214936247723132s" repeatCount="indefinite"></animate>
  </rect>
</g><g transform="rotate(280 50 50)">
  <rect x="48.5" y="19.5" rx="0" ry="0" width="3" height="17" fill="#7f7f7f">
    <animate attributeName="opacity" values="1;0" keyTimes="0;1" dur="0.819672131147541s" begin="-0.09107468123861566s" repeatCount="indefinite"></animate>
  </rect>
</g><g transform="rotate(320 50 50)">
  <rect x="48.5" y="19.5" rx="0" ry="0" width="3" height="17" fill="#7f7f7f">
    <animate attributeName="opacity" values="1;0" keyTimes="0;1" dur="0.819672131147541s" begin="0s" repeatCount="indefinite"></animate>
  </rect>
</g>
<!-- [ldio] generated by https://loading.io/ --></svg>